Coordinates
version=1
nRows=8
nColumns=34
inDegrees=yes

Units are S.I. units (second, meters, Newtons, ...)
If the header above contains a line with 'inDegrees', this indicates whether rotational values are in degrees (yes) or radians (no).

endheader
time	pelvis_tilt	pelvis_list	pelvis_rotation	pelvis_tx	pelvis_ty	pelvis_tz	hip_flexion_r	hip_adduction_r	hip_rotation_r	knee_angle_r	ankle_angle_r	subtalar_angle_r	mtp_angle_r	hip_flexion_l	hip_adduction_l	hip_rotation_l	knee_angle_l	ankle_angle_l	subtalar_angle_l	mtp_angle_l	lumbar_extension	lumbar_bending	lumbar_rotation	arm_flex_r	arm_add_r	arm_rot_r	elbow_flex_r	pro_sup_r	arm_flex_l	arm_add_l	arm_rot_l	elbow_flex_l	pro_sup_l
      0.00000000	      0.20629272	     -1.79891091	     -1.39598868	     -0.03950112	      1.16789514	     -0.09427629	     -3.81844090	      2.67114883	     -1.73280900	      1.55152124	      5.98466207	     -4.27401525	      0.00000000	     -3.76762164	     -1.36644679	     -1.47299688	      0.00000000	      6.88337351	     -3.63213368	      0.00000000	     -8.73158911	      1.21073759	     -0.35284689	      6.48110195	     -9.83249433	     44.00018135	     23.90760433	     34.73626598	      5.93978922	     -9.50902935	     41.30810924	     20.00391526	     31.46829757
      0.01666670	     -2.49097611	     -1.79587990	     -1.63869647	     -0.03720019	      1.16815490	     -0.09418843	     -0.15722956	      2.85438223	     -1.31179775	      3.44707163	      9.74900360	     -2.52563226	      0.00000000	     -0.28825557	     -1.01581263	     -0.74627927	      0.84231899	      6.88636879	     -3.29451581	      0.00000000	     -5.82679330	      1.47515990	      0.01725061	      3.68982224	     -8.78940298	     24.87857576	     25.08052856	     70.58861145	      4.58312438	     -9.20602330	     29.18933264	     23.16175887	     65.40769968
      0.03333330	     -3.62267615	     -0.73141035	     -1.99696614	     -0.03706839	      1.16730710	     -0.09228359	      0.86941780	      1.97054641	     -1.19080329	      2.86396049	      9.65203039	     -3.21323570	      0.00000000	      1.15476526	     -0.02215314	     -1.59305180	      1.23661883	      7.32999439	     -2.87203109	      0.00000000	     -4.16615824	      0.00364822	      0.53346284	      3.48777795	     -9.31404498	     28.70284956	     25.57906549	     72.08472804	      5.63140890	     -9.86139865	     31.26537619	     22.34682025	     66.65780524
      0.05000000	     -3.43286247	     -0.30384050	     -2.12816066	     -0.03549001	      1.16881008	     -0.09113872	      0.34717690	      1.68149008	     -1.43477507	      2.07549942	      9.66922220	     -2.62765743	      0.00000000	      0.38779020	      0.38748975	     -1.62860571	      0.35528066	      6.52608566	     -3.06488640	      0.00000000	     -4.26547053	     -0.61211775	      0.89206732	      3.42888890	     -9.12217560	     29.32795568	     25.08963150	     72.26287235	      6.36950796	    -10.38299952	     32.03919235	     22.85826395	     67.10835267
      0.06666670	     -3.57558001	     -0.13130082	     -2.00684996	     -0.03569694	      1.16801792	     -0.09084933	      0.30284248	      1.67954307	     -1.24858184	      1.67159517	      9.68487825	     -2.46041083	      0.00000000	      0.44808123	      0.58430146	     -1.58785229	      0.23248159	      6.57837437	     -3.07671930	      0.00000000	     -4.08178444	     -0.73691723	      0.70906197	      3.50668719	     -8.97170374	     29.37979273	     25.12515911	     72.27841772	      7.02900388	    -10.56801603	     32.04056422	     23.00338760	     67.14681842
      0.08333330	     -3.57614582	      0.14254122	     -1.91557969	     -0.03289697	      1.16625133	     -0.09072924	     -0.13158958	      1.46139236	     -1.65623201	      1.11670782	      9.23055539	     -2.37705750	      0.00000000	      0.41031988	      0.87027846	     -1.39220587	      0.24079705	      6.45591139	     -2.99258011	      0.00000000	     -3.89172481	     -1.13530889	      0.80646581	      3.22716148	     -8.76968967	     29.54787441	     24.99041722	     72.33063831	      7.55040250	    -10.83110236	     32.21412374	     23.29900975	     67.32104359
      0.10000000	     -3.61579123	      0.15530645	     -2.05897497	     -0.03289882	      1.16681939	     -0.09070398	     -0.18385729	      1.48142754	     -1.72954949	      1.09642687	      9.18267240	     -2.39615223	      0.00000000	      0.35358947	      0.91840394	     -1.37965975	      0.19562403	      6.46240527	     -2.99179927	      0.00000000	     -3.74766128	     -1.06691253	      0.69078279	      3.24890673	     -8.73331066	     29.55385592	     25.00139242	     72.33420697	      7.89568145	    -10.83243695	     32.19861388	     23.41065827	     67.33604646
      0.11666670	     -3.66610827	      0.14249150	     -1.84960895	     -0.03228262	      1.16662972	     -0.09091224	     -0.32956616	      1.50760158	     -2.13713742	      0.97228797	      8.84622043	     -2.53489486	      0.00000000	      0.27802661	      0.94429273	     -1.36180417	      0.00000000	      6.44457518	     -2.99316348	      0.00000000	     -3.56665303	     -1.06428517	      0.78207796	      3.30994056	     -8.59880908	     29.56806617	     25.01203322	     72.34899585	      8.50152692	    -10.90946594	     32.13792768	     23.68948717	     67.38891633
